<?xml version="1.0" encoding="UTF-8"?>
<svg version="1.1" xmlns="http://www.w3.org/2000/svg" width="512" height="512">
<path d="M0 0 C7.00232025 6.1350604 13.66459 12.8091581 18.3046875 20.92578125 C20.17952651 18.60098088 22.04530935 16.27923438 23.8125 13.87109375 C32.67356301 1.96017649 45.83827301 -8.51628806 60.9921875 -10.8984375 C79.39568416 -12.29735194 96.20274707 -8.96311031 111.203125 2.0546875 C113.3046875 3.92578125 113.3046875 3.92578125 114.3046875 5.92578125 C114.29598632 8.4621761 114.17371539 10.9825477 114.046875 13.515625 C114.11308068 15.95919913 114.11308068 15.95919913 115.5625 17.734375 C117.68907578 19.18864767 118.75964989 19.21466625 121.3046875 19.05078125 C124.157872 18.88866849 125.49402292 18.98889306 128.3046875 19.92578125 C142.399533 37.19452659 146.30298396 61.11980252 145.08984375 82.7578125 C141.62412474 111.63880425 125.13686744 135.54948284 105.3046875 155.92578125 C104.72283691 156.5280957 104.14098633 157.13041016 103.54150391 157.75097656 C83.86090969 178.05219937 60.7637203 194.76831756 36.3046875 208.92578125 C48.10463225 212.85909617 59.94150533 208.70555551 71.0546875 204.67578125 C72.48233978 204.17758163 73.91072589 203.68147982 75.33984375 203.1875 C80.46783067 201.40481688 85.57508121 199.57073624 90.66210938 197.67382812 C91.64244141 197.30837891 92.62277344 196.94292969 93.6328125 196.56640625 C94.47231445 196.24704102 95.31181641 195.92767578 96.17675781 195.59863281 C98.3046875 194.92578125 98.3046875 194.92578125 101.3046875 194.92578125 C101.68052979 193.69190674 101.68052979 193.69190674 102.06396484 192.43310547 C103.491948 188.3964258 105.26803758 184.645891 107.15625 180.80859375 C107.53397552 180.03377655 107.91170105 179.25895935 108.3008728 178.46066284 C109.50699935 175.98898534 110.7183383 173.51990261 111.9296875 171.05078125 C112.72037706 169.43114819 113.51074436 167.81135777 114.30078125 166.19140625 C116.24557162 162.20776658 118.19941476 158.22867136 120.15893555 154.2522583 C120.92187413 152.70309306 121.68343398 151.15324804 122.44360352 149.60272217 C123.52097174 147.40636281 124.60350238 145.21262478 125.6875 143.01953125 C126.00562653 142.36896759 126.32375305 141.71840393 126.65151978 141.04812622 C131.67711 130.9294241 137.78995552 126.0657779 148.3046875 121.92578125 C157.55678031 119.63703265 166.26657609 120.79959776 174.7265625 125.1796875 C183.67982657 130.69285514 188.04608662 138.1499786 191.3046875 147.92578125 C191.39954532 150.09077145 191.43456827 152.25871948 191.4296875 154.42578125 C191.43226563 155.57046875 191.43484375 156.71515625 191.4375 157.89453125 C191.3046875 160.92578125 191.3046875 160.92578125 190.3046875 163.92578125 C191.2946875 163.59578125 192.2846875 163.26578125 193.3046875 162.92578125 C202.88875822 161.79715516 212.98139272 164.15079997 220.8046875 169.86328125 C221.9913137 170.86084332 223.16045683 171.87986157 224.3046875 172.92578125 C225.1915625 173.70953125 226.0784375 174.49328125 226.9921875 175.30078125 C234.04005544 183.30106378 237.89613101 191.98152046 237.8046875 202.67578125 C237.79896729 203.46073975 237.79324707 204.24569824 237.78735352 205.05444336 C237.46249817 215.73091819 233.07819118 225.50561865 225.3046875 232.92578125 C218.8354871 237.92099762 211.81833705 241.12658448 204.3046875 244.23828125 C203.13147949 244.73175049 201.95827148 245.22521973 200.74951172 245.73364258 C198.10986491 246.8430193 195.46744543 247.9454751 192.82324219 249.04394531 C188.65978906 250.77482952 184.50431024 252.52431301 180.34942627 254.27565002 C176.63445937 255.84001469 172.91671777 257.39770104 169.19824219 258.95370483 C167.35928478 259.72393041 165.52106146 260.49591112 163.68359375 261.26968384 C161.08334915 262.36327138 158.47969281 263.44830746 155.875 264.53125 C154.70942062 265.02418045 154.70942062 265.02418045 153.52029419 265.52706909 C149.47456921 267.19836569 145.71779653 268.59916769 141.3046875 268.92578125 C137.9296875 267.48828125 137.9296875 267.48828125 135.3046875 265.92578125 C135.3046875 265.26578125 135.3046875 264.60578125 135.3046875 263.92578125 C132.3346875 264.91578125 129.3646875 265.90578125 126.3046875 266.92578125 C126.6346875 268.24578125 126.9646875 269.56578125 127.3046875 270.92578125 C126.36429635 274.32565696 125.32173607 276.30781971 122.26075745 278.16767883 C116.29155043 281.03645439 110.27402735 283.71106859 104.14453125 286.21875 C103.20470398 286.60673767 102.26487671 286.99472534 101.29656982 287.39447021 C98.28015806 288.638293 95.26142947 289.87634579 92.2421875 291.11328125 C90.1579452 291.96879781 88.07371675 292.82434808 85.98950195 293.67993164 C81.91653315 295.35093771 77.84235782 297.01896238 73.76757812 298.68554688 C69.277478 300.52368765 64.79710403 302.38361282 60.3203125 304.25390625 C45.89271145 310.24153638 32.43032284 315.15683009 16.6796875 315.36328125 C15.96441895 315.37375488 15.24915039 315.38422852 14.51220703 315.39501953 C1.52007483 315.18298607 -11.04544112 311.10358288 -23.2421875 307 C-24.74361043 306.50233091 -26.24530308 306.00547493 -27.74723816 305.50935364 C-30.96658391 304.44411287 -34.18404936 303.37343963 -37.40011597 302.29833984 C-42.52752118 300.5844113 -47.65906346 298.8831129 -52.79125977 297.18359375 C-60.16520857 294.7405797 -67.53743857 292.29244415 -74.90869141 289.84130859 C-92.41841024 284.02013771 -109.93978573 278.23420621 -127.46269417 272.45287991 C-133.54093076 270.44727892 -139.61801125 268.43822602 -145.69412518 266.42620373 C-149.49512397 265.1681019 -153.29690181 263.91236695 -157.09887123 262.65720177 C-158.86683281 262.072987 -160.63446989 261.48778914 -162.40175438 260.90152931 C-164.82937814 260.09638452 -167.25816535 259.29484751 -169.68725586 258.49414062 C-170.38547329 258.26159923 -171.08369072 258.02905783 -171.80306625 257.78946972 C-184.92578947 253.47938333 -194.93450353 252.54537677 -207.6953125 258.92578125 C-211.71908723 259.30538264 -214.01696141 259.30919708 -217.5703125 257.30078125 C-220.1686214 254.39678895 -220.61626426 252.79914516 -220.6953125 248.92578125 C-219.8828125 246.11328125 -219.8828125 246.11328125 -218.6953125 243.92578125 C-218.0353125 243.59578125 -217.3753125 243.26578125 -216.6953125 242.92578125 C-218.97076526 235.67608292 -221.81922505 228.81233423 -224.8828125 221.86328125 C-226.0365098 219.22771956 -227.18638074 216.59049492 -228.3359375 213.953125 C-228.82017433 212.84316666 -228.82017433 212.84316666 -229.31419373 211.71078491 C-234.37200757 200.09991034 -239.34202396 188.45097652 -244.32666397 176.80855179 C-246.15855263 172.53015163 -247.99122995 168.2520892 -249.82380676 163.97398376 C-250.80596409 161.68032878 -251.78757695 159.38644057 -252.76860046 157.09230042 C-254.75139034 152.45633693 -256.73605687 147.82153482 -258.75048828 143.19921875 C-259.03972672 142.5333374 -259.32896515 141.86745605 -259.62696838 141.18139648 C-260.34493014 139.53116059 -261.06689285 137.88266681 -261.78930664 136.234375 C-262.6953125 133.92578125 -262.6953125 133.92578125 -262.6953125 131.92578125 C-263.7471875 132.02890625 -264.7990625 132.13203125 -265.8828125 132.23828125 C-269.6953125 131.92578125 -269.6953125 131.92578125 -272.6328125 129.92578125 C-274.74770194 126.84957843 -275.6186937 124.72847212 -275.36940002 120.95652771 C-273.11552422 114.1665336 -263.17587924 109.37822962 -257.44921875 105.671875 C-256.57282745 105.09729553 -255.69643616 104.52271606 -254.79348755 103.9307251 C-251.95192279 102.06924424 -249.10499073 100.21616225 -246.2578125 98.36328125 C-242.28495761 95.76661426 -238.31444906 93.1663682 -234.34375 90.56640625 C-233.35386581 89.91915085 -232.36398163 89.27189545 -231.34410095 88.60502625 C-225.19625511 84.58082911 -219.07654754 80.51810336 -212.984375 76.41015625 C-212.24217209 75.91060928 -211.49996918 75.41106232 -210.73527527 74.89637756 C-206.57230599 72.09353838 -206.57230599 72.09353838 -202.41921997 69.27609253 C-190.85256696 61.40110998 -178.92185364 53.69545334 -165.4453125 49.55078125 C-164.39730469 49.20080078 -164.39730469 49.20080078 -163.328125 48.84375 C-153.46263877 45.66885716 -143.78267547 44.56047429 -133.4453125 44.61328125 C-132.35283203 44.61602051 -131.26035156 44.61875977 -130.13476562 44.62158203 C-121.6379968 44.73099868 -113.93087643 45.76959912 -105.6953125 47.92578125 C-103.88421366 48.32797682 -102.07189173 48.72474964 -100.2578125 49.11328125 C-99.0821875 49.38140625 -97.9065625 49.64953125 -96.6953125 49.92578125 C-96.1607869 48.68157478 -95.64322639 47.43007189 -95.1328125 46.17578125 C-94.84277344 45.4796875 -94.55273438 44.78359375 -94.25390625 44.06640625 C-93.59950842 41.55864394 -93.79850035 40.33688276 -94.6953125 37.92578125 C-95.3553125 36.93578125 -96.0153125 35.94578125 -96.6953125 34.92578125 C-97.75180978 29.51123268 -95.41851874 25.99040651 -92.59375 21.57421875 C-80.5459482 4.76679155 -64.98733021 -6.50352938 -44.6875 -10.6953125 C-28.64124153 -12.72727996 -13.01019911 -10.0121967 0 0 Z M-79.6953125 143.92578125 C-83.76790519 148.52386978 -85.76786379 151.64041558 -85.5703125 157.86328125 C-84.85205838 162.06230533 -83.61527273 164.72094685 -80.6953125 167.92578125 C-73.34543614 172.47429381 -64.9749749 175.1998228 -56.86108398 178.05761719 C-54.73317897 178.80948519 -52.61177784 179.57804572 -50.49023438 180.34765625 C-49.13317113 180.83043636 -47.77576149 181.31224414 -46.41796875 181.79296875 C-45.19859619 182.22722168 -43.97922363 182.66147461 -42.72290039 183.10888672 C-39.68228594 184.22835162 -39.68228594 184.22835162 -36.6953125 182.92578125 C-38.20158203 181.72695313 -38.20158203 181.72695313 -39.73828125 180.50390625 C-52.23002141 170.500989 -63.90654097 160.17405513 -74.6472168 148.29321289 C-75.97961322 146.82185615 -77.33513978 145.37149943 -78.6953125 143.92578125 C-79.0253125 143.92578125 -79.3553125 143.92578125 -79.6953125 143.92578125 Z " fill="#F6CAA3" transform="translate(274.6953125,104.07421875)"/>
<path d="M0 0 C7.00232025 6.1350604 13.66459 12.8091581 18.3046875 20.92578125 C20.17952651 18.60098088 22.04530935 16.27923438 23.8125 13.87109375 C32.67356301 1.96017649 45.83827301 -8.51628806 60.9921875 -10.8984375 C79.39568416 -12.29735194 96.20274707 -8.96311031 111.203125 2.0546875 C113.3046875 3.92578125 113.3046875 3.92578125 114.3046875 5.92578125 C114.29598632 8.4621761 114.17371539 10.9825477 114.046875 13.515625 C114.11308068 15.95919913 114.11308068 15.95919913 115.5625 17.734375 C117.68907578 19.18864767 118.75964989 19.21466625 121.3046875 19.05078125 C124.157872 18.88866849 125.49402292 18.98889306 128.3046875 19.92578125 C142.399533 37.19452659 146.30298396 61.11980252 145.08984375 82.7578125 C141.62412474 111.63880425 125.13686744 135.54948284 105.3046875 155.92578125 C104.72283691 156.5280957 104.14098633 157.13041016 103.54150391 157.75097656 C83.86090969 178.05219937 60.7637203 194.76831756 36.3046875 208.92578125 C48.10463225 212.85909617 59.94150533 208.70555551 71.0546875 204.67578125 C72.48233978 204.17758163 73.91072589 203.68147982 75.33984375 203.1875 C80.46783067 201.40481688 85.57508121 199.57073624 90.66210938 197.67382812 C91.64244141 197.30837891 92.62277344 196.94292969 93.6328125 196.56640625 C94.47231445 196.24704102 95.31181641 195.92767578 96.17675781 195.59863281 C98.3046875 194.92578125 98.3046875 194.92578125 101.3046875 194.92578125 C101.68052979 193.69190674 101.68052979 193.69190674 102.06396484 192.43310547 C103.491948 188.3964258 105.26803758 184.645891 107.15625 180.80859375 C107.53397552 180.03377655 107.91170105 179.25895935 108.3008728 178.46066284 C109.50699935 175.98898534 110.7183383 173.51990261 111.9296875 171.05078125 C112.72037706 169.43114819 113.51074436 167.81135777 114.30078125 166.19140625 C116.24557162 162.20776658 118.19941476 158.22867136 120.15893555 154.2522583 C120.92187413 152.70309306 121.68343398 151.15324804 122.44360352 149.60272217 C123.52097174 147.40636281 124.60350238 145.21262478 125.6875 143.01953125 C126.00562653 142.36896759 126.32375305 141.71840393 126.65151978 141.04812622 C131.67711 130.9294241 137.78995552 126.0657779 148.3046875 121.92578125 C157.55678031 119.63703265 166.26657609 120.79959776 174.7265625 125.1796875 C183.67982657 130.69285514 188.04608662 138.1499786 191.3046875 147.92578125 C191.39954532 150.09077145 191.43456827 152.25871948 191.4296875 154.42578125 C191.43226563 155.57046875 191.43484375 156.71515625 191.4375 157.89453125 C191.3046875 160.92578125 191.3046875 160.92578125 190.3046875 163.92578125 C191.2946875 163.59578125 192.2846875 163.26578125 193.3046875 162.92578125 C202.88875822 161.79715516 212.98139272 164.15079997 220.8046875 169.86328125 C221.9913137 170.86084332 223.16045683 171.87986157 224.3046875 172.92578125 C225.1915625 173.70953125 226.0784375 174.49328125 226.9921875 175.30078125 C234.04005544 183.30106378 237.89613101 191.98152046 237.8046875 202.67578125 C237.79896729 203.46073975 237.79324707 204.24569824 237.78735352 205.05444336 C237.46249817 215.73091819 233.07819118 225.50561865 225.3046875 232.92578125 C218.8354871 237.92099762 211.81833705 241.12658448 204.3046875 244.23828125 C203.13147949 244.73175049 201.95827148 245.22521973 200.74951172 245.73364258 C198.10986491 246.8430193 195.46744543 247.9454751 192.82324219 249.04394531 C188.65978906 250.77482952 184.50431024 252.52431301 180.34942627 254.27565002 C176.63445937 255.84001469 172.91671777 257.39770104 169.19824219 258.95370483 C167.35928478 259.72393041 165.52106146 260.49591112 163.68359375 261.26968384 C161.08334915 262.36327138 158.47969281 263.44830746 155.875 264.53125 C154.70942062 265.02418045 154.70942062 265.02418045 153.52029419 265.52706909 C143.3404225 269.73239323 143.3404225 269.73239323 137.9921875 267.61328125 C135.3046875 265.92578125 135.3046875 265.92578125 134.3046875 263.92578125 C133.9296875 260.61328125 133.9296875 260.61328125 134.3046875 256.92578125 C137.40825193 253.29288916 140.3330975 251.11463336 144.68359375 249.203125 C145.82844238 248.69894043 146.97329102 248.19475586 148.15283203 247.67529297 C158.16268552 243.4294491 168.23635016 239.33511717 178.30932617 235.24194336 C192.49483226 229.50624865 192.49483226 229.50624865 206.43359375 223.203125 C207.46685791 222.7093335 208.50012207 222.21554199 209.56469727 221.70678711 C213.7095544 219.01261151 216.43123529 215.71427864 218.6171875 211.23828125 C220.11838577 204.00523505 220.36228455 197.1766023 216.57421875 190.64453125 C212.77455211 185.50036718 207.89140038 182.55327838 201.59326172 181.45141602 C189.05240849 180.85953186 178.03393712 185.63599312 166.4296875 189.86328125 C164.13013287 190.68241424 161.82982592 191.49943803 159.52880859 192.31445312 C154.78957892 193.99702206 150.05502453 195.69183995 145.32421875 197.39794922 C138.64826249 199.80524676 131.96299102 202.18546929 125.2734375 204.5546875 C124.23591339 204.92214584 123.19838928 205.28960419 122.12942505 205.66819763 C120.0731688 206.39629635 118.01686453 207.12425947 115.96051025 207.8520813 C112.95323137 208.91744059 109.94696971 209.98562702 106.94091797 211.05444336 C95.51236769 215.11385403 84.06352907 219.09951775 72.5546875 222.92578125 C71.34119629 223.32925781 70.12770508 223.73273438 68.87744141 224.1484375 C45.36672473 231.89624787 27.07599949 225.97979053 4.67529297 217.85595703 C-1.11315461 215.76340578 -6.93138073 213.7610295 -12.75390625 211.765625 C-24.14083263 207.85933289 -35.50907465 203.90169356 -46.86859131 199.91644287 C-49.56205648 198.97248257 -52.25668743 198.03193125 -54.95166016 197.09228516 C-58.83871373 195.73548456 -62.72078072 194.36535684 -66.5987854 192.98291016 C-67.97017527 192.4958301 -69.34299486 192.01275223 -70.71737671 191.53417969 C-82.87217509 187.29375684 -93.35489859 182.13720525 -100.015625 170.6484375 C-103.82382946 162.43283557 -104.17962765 153.3152225 -101.2578125 144.73828125 C-96.78554133 135.10328301 -89.49026751 128.72707245 -79.6953125 124.92578125 C-69.18380673 121.42194599 -59.00807692 125.32346004 -49.0703125 128.86328125 C-47.53757629 129.39383106 -46.00418835 129.92250113 -44.47021484 130.44946289 C-41.09105246 131.61274021 -37.71552772 132.78591106 -34.34179688 133.96484375 C-28.14415594 136.12470265 -21.92840021 138.23003815 -15.7109375 140.33203125 C-13.47085582 141.08989539 -11.23078422 141.8477893 -8.99072266 142.60571289 C-7.88432434 142.98003448 -6.77792603 143.35435608 -5.63800049 143.74002075 C-0.33514461 145.53539408 4.96592487 147.33595895 10.265625 149.140625 C11.24161148 149.47219604 12.21759796 149.80376709 13.22315979 150.14538574 C19.67217619 152.34406426 26.07534343 154.63783543 32.4440918 157.06054688 C38.61480199 158.92698 45.37665657 159.23247106 51.3046875 156.42578125 C55.52427255 152.90946037 57.73487913 149.32520617 58.6484375 143.875 C58.87770575 138.95528539 57.67667968 135.17900861 55.3046875 130.92578125 C51.22658052 127.03059219 46.76225816 125.25992348 41.5859375 123.28515625 C40.7134436 122.94442078 39.84094971 122.6036853 38.9420166 122.25262451 C36.06671143 121.13355307 33.18624553 120.02864376 30.3046875 118.92578125 C28.32159581 118.16215813 26.33852317 117.39848554 24.35546875 116.63476562 C18.99491859 114.57571652 13.6290201 112.53093874 8.26147461 110.49020386 C2.23275334 108.19781868 -3.79369244 105.89946477 -9.8203125 103.6015625 C-11.6699762 102.89647301 -11.6699762 102.89647301 -13.55700684 102.17713928 C-25.34211523 97.68292353 -37.11753882 93.16370531 -48.88928223 88.63461304 C-52.17137591 87.37248605 -55.45426559 86.11244865 -58.73730469 84.8527832 C-67.93548311 81.32053385 -77.1249459 77.77251584 -86.2734375 74.11328125 C-88.362334 73.2833221 -90.45153228 72.45412653 -92.54077148 71.62503052 C-94.33690469 70.90664055 -96.1266926 70.17244408 -97.91601562 69.43725586 C-109.73879175 64.74016101 -122.00900293 62.33719491 -134.7578125 62.48828125 C-136.15676758 62.49964111 -136.15676758 62.49964111 -137.58398438 62.51123047 C-159.25279896 63.02271007 -176.49268892 73.6402819 -193.8203125 85.48828125 C-196.57019476 87.34893249 -199.32294613 89.2052896 -202.07572937 91.06164551 C-203.98723268 92.35120231 -205.89779588 93.64215364 -207.80744934 94.93444824 C-218.85173915 102.40382556 -229.9918719 109.72672353 -241.1328125 117.05078125 C-243.06080345 118.31960029 -244.988703 119.58855824 -246.91650391 120.85766602 C-250.92587752 123.49710674 -254.93594356 126.13549103 -258.94676208 128.7727356 C-260.53294633 129.81871221 -262.11440653 130.87184394 -263.6953125 131.92578125 C-267.69331414 132.5341728 -269.21732502 132.25829428 -272.5703125 129.92578125 C-274.75136813 126.84664389 -275.6213171 124.76816559 -275.36940002 120.95652771 C-273.11552422 114.1665336 -263.17587924 109.37822962 -257.44921875 105.671875 C-256.57282745 105.09729553 -255.69643616 104.52271606 -254.79348755 103.9307251 C-251.95192279 102.06924424 -249.10499073 100.21616225 -246.2578125 98.36328125 C-242.28495761 95.76661426 -238.31444906 93.1663682 -234.34375 90.56640625 C-233.35386581 89.91915085 -232.36398163 89.27189545 -231.34410095 88.60502625 C-225.19625511 84.58082911 -219.07654754 80.51810336 -212.984375 76.41015625 C-212.24217209 75.91060928 -211.49996918 75.41106232 -210.73527527 74.89637756 C-206.57230599 72.09353838 -206.57230599 72.09353838 -202.41921997 69.27609253 C-190.85256696 61.40110998 -178.92185364 53.69545334 -165.4453125 49.55078125 C-164.39730469 49.20080078 -164.39730469 49.20080078 -163.328125 48.84375 C-153.46263877 45.66885716 -143.78267547 44.56047429 -133.4453125 44.61328125 C-132.35283203 44.61602051 -131.26035156 44.61875977 -130.13476562 44.62158203 C-121.6379968 44.73099868 -113.93087643 45.76959912 -105.6953125 47.92578125 C-103.88421366 48.32797682 -102.07189173 48.72474964 -100.2578125 49.11328125 C-99.0821875 49.38140625 -97.9065625 49.64953125 -96.6953125 49.92578125 C-96.1607869 48.68157478 -95.64322639 47.43007189 -95.1328125 46.17578125 C-94.84277344 45.4796875 -94.55273438 44.78359375 -94.25390625 44.06640625 C-93.59950842 41.55864394 -93.79850035 40.33688276 -94.6953125 37.92578125 C-95.3553125 36.93578125 -96.0153125 35.94578125 -96.6953125 34.92578125 C-97.75180978 29.51123268 -95.41851874 25.99040651 -92.59375 21.57421875 C-80.5459482 4.76679155 -64.98733021 -6.50352938 -44.6875 -10.6953125 C-28.64124153 -12.72727996 -13.01019911 -10.0121967 0 0 Z M-79.6953125 143.92578125 C-83.76790519 148.52386978 -85.76786379 151.64041558 -85.5703125 157.86328125 C-84.85205838 162.06230533 -83.61527273 164.72094685 -80.6953125 167.92578125 C-73.34543614 172.47429381 -64.9749749 175.1998228 -56.86108398 178.05761719 C-54.73317897 178.80948519 -52.61177784 179.57804572 -50.49023438 180.34765625 C-49.13317113 180.83043636 -47.77576149 181.31224414 -46.41796875 181.79296875 C-45.19859619 182.22722168 -43.97922363 182.66147461 -42.72290039 183.10888672 C-39.68228594 184.22835162 -39.68228594 184.22835162 -36.6953125 182.92578125 C-38.20158203 181.72695313 -38.20158203 181.72695313 -39.73828125 180.50390625 C-52.23002141 170.500989 -63.90654097 160.17405513 -74.6472168 148.29321289 C-75.97961322 146.82185615 -77.33513978 145.37149943 -78.6953125 143.92578125 C-79.0253125 143.92578125 -79.3553125 143.92578125 -79.6953125 143.92578125 Z " fill="#020101" transform="translate(274.6953125,104.07421875)"/>
<path d="M0 0 C7.00232025 6.1350604 13.66459 12.8091581 18.3046875 20.92578125 C20.17952651 18.60098088 22.04530935 16.27923438 23.8125 13.87109375 C32.67356301 1.96017649 45.83827301 -8.51628806 60.9921875 -10.8984375 C79.39568416 -12.29735194 96.20274707 -8.96311031 111.203125 2.0546875 C113.3046875 3.92578125 113.3046875 3.92578125 114.3046875 5.92578125 C114.29598632 8.4621761 114.17371539 10.9825477 114.046875 13.515625 C114.35675399 16.41252403 115.17241991 17.05863688 117.3046875 18.92578125 C117.0546875 20.67578125 117.0546875 20.67578125 116.3046875 22.92578125 C114.52559295 29.6401525 116.44388104 33.29352022 119.5546875 39.11328125 C125.45075921 50.28233822 127.86451575 60.72432685 127.7421875 73.36328125 C127.73533936 74.45858154 127.72849121 75.55388184 127.72143555 76.68237305 C127.55986535 84.81837027 126.54818524 91.4106182 123.3046875 98.92578125 C122.93085938 99.93253906 122.55703125 100.93929687 122.171875 101.9765625 C115.32976365 119.8068328 102.33314406 134.30343493 89.3046875 147.92578125 C88.66789063 148.60382813 88.03109375 149.281875 87.375 149.98046875 C83.22064005 154.29384726 78.63269312 158.0157912 73.97265625 161.76953125 C70.69001869 164.42255604 67.49398158 167.16172638 64.3046875 169.92578125 C63.6446875 169.59578125 62.9846875 169.26578125 62.3046875 168.92578125 C62.75199219 168.53648437 63.19929687 168.1471875 63.66015625 167.74609375 C69.82754589 162.03895707 74.78010176 154.55383686 75.578125 145.9921875 C75.86693886 136.02810917 74.04963661 127.72908609 68.1171875 119.55078125 C59.55723454 111.56149182 48.36391816 107.95334687 37.6171875 103.86328125 C35.82238681 103.17229115 34.02788041 102.48053624 32.23364258 101.78808594 C27.31068212 99.89150342 22.38294768 98.00764657 17.45373535 96.12738037 C14.25071406 94.90518631 11.04857614 93.68070406 7.84667969 92.45556641 C-2.41405209 88.52991757 -12.67708729 84.61034747 -22.94268799 80.69744873 C-37.43806491 75.17224403 -51.92793517 69.63292224 -66.40951538 64.07165527 C-68.71132899 63.18800542 -71.01342944 62.30510238 -73.31582642 61.42297363 C-76.49906729 60.20321161 -79.68130722 58.98087484 -82.86328125 57.7578125 C-83.80537445 57.39736343 -84.74746765 57.03691437 -85.71810913 56.6655426 C-86.58352325 56.33223434 -87.44893738 55.99892609 -88.34057617 55.65551758 C-89.08957687 55.36800125 -89.83857758 55.08048492 -90.61027527 54.78425598 C-92.69560705 53.92565998 -94.69198985 52.95988036 -96.6953125 51.92578125 C-96.46714844 51.2503125 -96.23898438 50.57484375 -96.00390625 49.87890625 C-95.71644531 48.986875 -95.42898437 48.09484375 -95.1328125 47.17578125 C-94.84277344 46.2940625 -94.55273438 45.41234375 -94.25390625 44.50390625 C-93.66420105 41.78218996 -93.70760697 40.49489508 -94.6953125 37.92578125 C-95.3553125 36.93578125 -96.0153125 35.94578125 -96.6953125 34.92578125 C-97.75180978 29.51123268 -95.41851874 25.99040651 -92.59375 21.57421875 C-80.5459482 4.76679155 -64.98733021 -6.50352938 -44.6875 -10.6953125 C-28.64124153 -12.72727996 -13.01019911 -10.0121967 0 0 Z " fill="#FB5C64" transform="translate(274.6953125,104.07421875)"/>
<path d="M0 0 C1.09835678 0.33180016 1.09835678 0.33180016 2.21890259 0.67030334 C10.20307672 3.10809876 18.11799844 5.75676756 26.0272522 8.42575073 C30.6237105 9.9762795 35.22394805 11.51551332 39.82421875 13.0546875 C40.77231918 13.37203354 41.72041962 13.68937958 42.69725037 14.01634216 C52.63603322 17.33746762 62.6016808 20.57450192 72.5703125 23.8046875 C86.47906424 28.31242557 100.36139989 32.89218409 114.22445679 37.5385437 C129.69903989 42.72406317 145.19656624 47.82221963 160.7578125 52.7421875 C161.975327 53.12833221 161.975327 53.12833221 163.21743774 53.52227783 C165.49029032 54.24210727 167.76436984 54.95788438 170.0390625 55.671875 C170.70145432 55.88152893 171.36384613 56.09118286 172.04631042 56.30718994 C178.35184093 58.27316227 184.09842574 59.09503968 190.6953125 59.1796875 C191.41396484 59.20869141 192.13261719 59.23769531 192.87304688 59.26757812 C206.24862817 59.41812579 219.11490354 53.13355001 231.2578125 48.1171875 C232.85540203 47.46485113 234.4532262 46.81308912 236.05126953 46.16186523 C244.69375337 42.62895907 253.29630594 39.00914835 261.875 35.32421875 C263.6093478 34.58229319 265.34372247 33.84043042 267.078125 33.09863281 C270.39479904 31.67944846 273.70317336 30.24285158 277.0078125 28.79589844 C278.52580764 28.14333554 280.04402541 27.49129022 281.5625 26.83984375 C282.24013397 26.53746292 282.91776794 26.23508209 283.61593628 25.92353821 C287.9845037 24.07013911 291.52726756 23.38445673 296.2578125 23.8671875 C298.96071151 25.98249977 300.68483015 27.7570342 302.2578125 30.8046875 C302.2578125 34.34932608 301.3305068 35.96541548 299.2578125 38.8671875 C292.96077887 42.69328264 285.90321343 45.37588672 279.09765625 48.16015625 C278.15782898 48.54814392 277.21800171 48.93613159 276.24969482 49.33587646 C273.23328306 50.57969925 270.21455447 51.81775204 267.1953125 53.0546875 C265.1110702 53.91020406 263.02684175 54.76575433 260.94262695 55.62133789 C256.86965815 57.29234396 252.79548282 58.96036863 248.72070312 60.62695312 C244.230603 62.4650939 239.75022903 64.32501907 235.2734375 66.1953125 C220.84583645 72.18294263 207.38344784 77.09823634 191.6328125 77.3046875 C190.91754395 77.31516113 190.20227539 77.32563477 189.46533203 77.33642578 C176.47319983 77.12439232 163.90768388 73.04498913 151.7109375 68.94140625 C150.20951457 68.44373716 148.70782192 67.94688118 147.20588684 67.45075989 C143.98654109 66.38551912 140.76907564 65.31484588 137.55300903 64.23974609 C132.42560382 62.52581755 127.29406154 60.82451915 122.16186523 59.125 C114.78791643 56.68198595 107.41568643 54.2338504 100.04443359 51.78271484 C82.53471476 45.96154396 65.01333927 40.17561246 47.49043083 34.39428616 C41.41219424 32.38868517 35.33511375 30.37963227 29.25899982 28.36760998 C25.45800103 27.10950815 21.65622319 25.8537732 17.85425377 24.59860802 C16.08629219 24.01439325 14.31865511 23.42919539 12.55137062 22.84293556 C10.12374686 22.03779077 7.69495965 21.23625376 5.26586914 20.43554688 C4.56765171 20.20300548 3.86943428 19.97046408 3.15005875 19.73087597 C-9.97266447 15.42078958 -19.98137853 14.48678302 -32.7421875 20.8671875 C-36.76596223 21.24678889 -39.06383641 21.25060333 -42.6171875 19.2421875 C-45.2154964 16.3381952 -45.66313926 14.74055141 -45.7421875 10.8671875 C-45.3671875 8.2421875 -45.3671875 8.2421875 -43.7421875 5.8671875 C-40.90414771 4.08271237 -37.89006719 2.99271143 -34.7421875 1.8671875 C-33.26105469 1.30451172 -33.26105469 1.30451172 -31.75 0.73046875 C-20.79472171 -3.08646806 -11.10626879 -3.43700817 0 0 Z " fill="#010100" transform="translate(99.7421875,342.1328125)"/>
<path d="M0 0 C7.00232025 6.1350604 13.66459 12.8091581 18.3046875 20.92578125 C20.17952651 18.60098088 22.04530935 16.27923438 23.8125 13.87109375 C32.67356301 1.96017649 45.83827301 -8.51628806 60.9921875 -10.8984375 C79.39568416 -12.29735194 96.20274707 -8.96311031 111.203125 2.0546875 C114.05040671 4.58972085 114.26037553 5.44721201 114.6171875 9.30078125 C114.3046875 12.92578125 114.3046875 12.92578125 112.7421875 15.30078125 C109.43902762 17.50288784 107.28604502 17.7933369 103.3046875 17.92578125 C100.28522897 16.8335981 97.61654077 15.25893375 94.8671875 13.61328125 C84.2252713 7.38222262 73.65048751 4.91450728 61.2734375 7.578125 C49.39462152 11.46543416 40.21865581 20.14232692 34.42871094 31.07446289 C30.53751929 38.76656568 28.44996785 45.40444013 27.8671875 54.05078125 C27.54211455 58.64243671 26.94023532 62.02517048 24.3046875 65.92578125 C21.17526285 67.49049358 17.69386527 67.62280083 14.3046875 66.92578125 C10.94679307 64.60937279 10.35996343 63.21321606 9.58203125 59.16796875 C9.45467758 57.71340315 9.34203636 56.25749339 9.2421875 54.80078125 C7.81551179 39.79532317 2.89434125 26.21692865 -8.6953125 15.92578125 C-19.38908546 8.38825665 -28.65895473 5.71731239 -41.6953125 6.92578125 C-58.1781243 10.52054566 -70.17204129 20.61511282 -79.421875 34.265625 C-82.52052239 38.83838619 -82.52052239 38.83838619 -84.6953125 39.92578125 C-88.7918341 39.96464768 -92.52553184 39.88287452 -95.7578125 37.23828125 C-97.07285518 33.99450931 -97.28146485 32.44269534 -96.6953125 28.92578125 C-90.10787192 14.50327877 -75.68827825 0.12156518 -60.88574219 -5.79785156 C-40.28425726 -13.42917856 -18.15305453 -13.96995936 0 0 Z " fill="#010000" transform="translate(274.6953125,104.07421875)"/>
<path d="M0 0 C8.59959921 2.47706064 17.06384496 5.34054982 25.53515625 8.21875 C27.0238267 8.72309846 28.51255148 9.22728655 30.00132751 9.73132324 C33.89615378 11.05038847 37.7902903 12.37147793 41.68426514 13.6930542 C46.40407024 15.29450533 51.12466815 16.89361759 55.84516811 18.4930191 C60.2020854 19.9692783 64.55870452 21.44641107 68.91500092 22.92450142 C70.82221708 23.57110373 72.72995377 24.21617008 74.63771057 24.86117554 C76.70531376 25.56148321 78.771646 26.26557341 80.83580017 26.97598267 C90.92130626 30.42089525 100.1041003 29.77074245 110 26 C111.03125 25.608125 112.0625 25.21625 113.125 24.8125 C113.74375 24.544375 114.3625 24.27625 115 24 C110.78683565 28.63276812 106.01420203 31.83394885 100.75 35.1875 C99.87335693 35.74904785 98.99671387 36.3105957 98.09350586 36.88916016 C95.40222738 38.60340284 92.70247097 40.30346803 90 42 C89.17064941 42.52513184 88.34129883 43.05026367 87.48681641 43.59130859 C85.18956002 45.03776383 82.87968198 46.46073942 80.5625 47.875 C79.52657715 48.52698364 79.52657715 48.52698364 78.46972656 49.19213867 C75.80582027 50.7844612 73.69566047 51.98779543 70.55078125 52.04296875 C66.72000264 50.47663201 63.19240252 48.52966924 59.625 46.4375 C58.80209473 45.95643799 57.97918945 45.47537598 57.13134766 44.97973633 C36.96817271 32.97103562 15.55324622 18.85743085 0 1 C0 0.67 0 0.34 0 0 Z " fill="#F85B63" transform="translate(222,250)"/>
<path d="M0 0 C4.20328938 2.77238235 7.66979118 6.40208236 9.9375 10.9375 C10.65486078 18.35022803 9.74065255 26.00809099 4.9375 31.9375 C1.09512916 34.03725203 -2.94217313 35.47589368 -7.0625 36.9375 C-8.26100586 37.37030273 -9.45951172 37.80310547 -10.69433594 38.24902344 C-13.83583694 39.36448988 -16.98250223 40.45798642 -20.13818359 41.53222656 C-22.08974966 42.19677913 -24.03912575 42.86747614 -25.98828125 43.5390625 C-36.31777494 47.07876439 -36.31777494 47.07876439 -40.0625 47.9375 C-38.55178137 43.01743737 -36.54875896 38.49536364 -34.32421875 33.87109375 C-33.780252 32.73632347 -33.780252 32.73632347 -33.22529602 31.57862854 C-32.45994212 29.98673636 -31.69250324 28.3958451 -30.9230957 26.8059082 C-29.75425916 24.38382591 -28.60067485 21.95484942 -27.44726562 19.52539062 C-26.69884763 17.97350902 -25.94952838 16.42206166 -25.19921875 14.87109375 C-24.68955818 13.78966347 -24.68955818 13.78966347 -24.16960144 12.68638611 C-19.3532593 2.85235131 -11.34261577 -3.93519323 0 0 Z " fill="#DCB091" transform="translate(439.0625,243.0625)"/>
<path d="M0 0 C0.99 0.33 1.98 0.66 3 1 C-0.96 4.465 -0.96 4.465 -5 8 C-5.66 7.67 -6.32 7.34 -7 7 C-4.69 4.69 -2.38 2.38 0 0 Z " fill="#C6494F" transform="translate(344,266)"/>
</svg>
